HIERARCHY
ROOT hip
{
  OFFSET 0 0 0
  CHANNELS 6 Xposition Yposition Zposition Zrotation Yrotation Xrotation
  JOINT abdomen
  {
    OFFSET 0 20.6881 -0.73152
    CHANNELS 3 Zrotation Xrotation Yrotation
    JOINT chest
    {
      OFFSET 0 11.7043 -0.48768
      CHANNELS 3 Zrotation Xrotation Yrotation
      JOINT neck
      {
        OFFSET 0 22.1894 -2.19456
        CHANNELS 3 Zrotation Xrotation Yrotation
        JOINT head
        {
          OFFSET -0.24384 7.07133 1.2192
          CHANNELS 3 Zrotation Xrotation Yrotation
          JOINT leftEye
          {
            OFFSET 4.14528 8.04674 8.04672
            CHANNELS 3 Zrotation Xrotation Yrotation
            End Site
            {
              OFFSET 1 0 0
            }
          }
          JOINT rightEye
          {
            OFFSET -3.6576 8.04674 8.04672
            CHANNELS 3 Zrotation Xrotation Yrotation
            End Site
            {
              OFFSET 1 0 0
            }
          }
        }
      }
      JOINT rCollar
      {
        OFFSET -2.68224 19.2634 -4.8768
        CHANNELS 3 Zrotation Xrotation Yrotation
        JOINT rShldr
        {
          OFFSET -8.77824 -1.95073 1.46304
          CHANNELS 3 Zrotation Xrotation Yrotation
          JOINT rForeArm
          {
            OFFSET -28.1742 -1.7115 0.48768
            CHANNELS 3 Zrotation Xrotation Yrotation
            JOINT rHand
            {
              OFFSET -22.5879 0.773209 7.07136
              CHANNELS 3 Zrotation Xrotation Yrotation
              JOINT rThumb1
              {
                OFFSET -1.2192 -0.487915 3.41376
                CHANNELS 3 Zrotation Xrotation Yrotation
                JOINT rThumb2
                {
                  OFFSET -3.37035 -0.52449 3.41376
                  CHANNELS 3 Zrotation Xrotation Yrotation
                  End Site
                  {
                    OFFSET -1.78271 -1.18214 1.43049
                  }
                }
              }
              JOINT rIndex1
              {
                OFFSET -7.75947 0.938293 5.60832
                CHANNELS 3 Zrotation Xrotation Yrotation
                JOINT rIndex2
                {
                  OFFSET -2.54057 -0.884171 1.56538
                  CHANNELS 3 Zrotation Xrotation Yrotation
                  End Site
                  {
                    OFFSET -1.62519 -0.234802 1.16502
                  }
                }
              }
              JOINT rMid1
              {
                OFFSET -8.24714 1.18213 3.41376
                CHANNELS 3 Zrotation Xrotation Yrotation
                JOINT rMid2
                {
                  OFFSET -3.10165 -0.590103 1.0647
                  CHANNELS 3 Zrotation Xrotation Yrotation
                  End Site
                  {
                    OFFSET -2.48547 -0.328903 0.83742
                  }
                }
              }
              JOINT rRing1
              {
                OFFSET -8.82822 0.546677 1.51678
                CHANNELS 3 Zrotation Xrotation Yrotation
                JOINT rRing2
                {
                  OFFSET -2.60934 -0.819778 -0.0198488
                  CHANNELS 3 Zrotation Xrotation Yrotation
                  End Site
                  {
                    OFFSET -2.33842 -0.294052 0.168128
                  }
                }
              }
              JOINT rPinky1
              {
                OFFSET -8.27202 -0.0477905 -0.4584
                CHANNELS 3 Zrotation Xrotation Yrotation
                JOINT rPinky2
                {
                  OFFSET -1.82734 -0.647385 -0.700984
                  CHANNELS 3 Zrotation Xrotation Yrotation
                  End Site
                  {
                    OFFSET -1.69225 -0.51767 -0.607171
                  }
                }
              }
            }
          }
        }
      }
      JOINT lCollar
      {
        OFFSET 2.68224 19.2634 -4.8768
        CHANNELS 3 Zrotation Xrotation Yrotation
        JOINT lShldr
        {
          OFFSET 8.77824 -1.95073 1.46304
          CHANNELS 3 Zrotation Xrotation Yrotation
          JOINT lForeArm
          {
            OFFSET 28.1742 -1.7115 0.48768
            CHANNELS 3 Zrotation Xrotation Yrotation
            JOINT lHand
            {
              OFFSET 22.5879 0.773209 7.07136
              CHANNELS 3 Zrotation Xrotation Yrotation
              JOINT lThumb1
              {
                OFFSET 1.2192 -0.487915 3.41376
                CHANNELS 3 Zrotation Xrotation Yrotation
                JOINT lThumb2
                {
                  OFFSET 3.37035 -0.52449 3.41376
                  CHANNELS 3 Zrotation Xrotation Yrotation
                  End Site
                  {
                    OFFSET 1.78271 -1.18214 1.43049
                  }
                }
              }
              JOINT lIndex1
              {
                OFFSET 7.75947 0.938293 5.60832
                CHANNELS 3 Zrotation Xrotation Yrotation
                JOINT lIndex2
                {
                  OFFSET 2.54057 -0.884171 1.56538
                  CHANNELS 3 Zrotation Xrotation Yrotation
                  End Site
                  {
                    OFFSET 1.62519 -0.234802 1.16502
                  }
                }
              }
              JOINT lMid1
              {
                OFFSET 8.24714 1.18213 3.41376
                CHANNELS 3 Zrotation Xrotation Yrotation
                JOINT lMid2
                {
                  OFFSET 3.10165 -0.590103 1.0647
                  CHANNELS 3 Zrotation Xrotation Yrotation
                  End Site
                  {
                    OFFSET 2.48547 -0.328903 0.83742
                  }
                }
              }
              JOINT lRing1
              {
                OFFSET 8.82822 0.546677 1.51678
                CHANNELS 3 Zrotation Xrotation Yrotation
                JOINT lRing2
                {
                  OFFSET 2.60934 -0.819778 -0.0198488
                  CHANNELS 3 Zrotation Xrotation Yrotation
                  End Site
                  {
                    OFFSET 2.33842 -0.294052 0.168128
                  }
                }
              }
              JOINT lPinky1
              {
                OFFSET 8.27202 -0.0477905 -0.4584
                CHANNELS 3 Zrotation Xrotation Yrotation
                JOINT lPinky2
                {
                  OFFSET 1.82734 -0.647385 -0.700984
                  CHANNELS 3 Zrotation Xrotation Yrotation
                  End Site
                  {
                    OFFSET 1.69225 -0.51767 -0.607171
                  }
                }
              }
            }
          }
        }
      }
    }
  }
  JOINT rButtock
  {
    OFFSET -8.77824 4.35084 1.2192
    CHANNELS 3 Zrotation Xrotation Yrotation
    JOINT rThigh
    {
      OFFSET 0 -1.70687 -2.19456
      CHANNELS 3 Zrotation Xrotation Yrotation
      JOINT rShin
      {
        OFFSET 0 -36.8199 0.73152
        CHANNELS 3 Zrotation Xrotation Yrotation
        JOINT rFoot
        {
          OFFSET 0.73152 -45.1104 -5.12064
          CHANNELS 3 Zrotation Xrotation Yrotation
          End Site
          {
            OFFSET -1.1221 -3.69964 12.103
          }
        }
      }
    }
  }
  JOINT lButtock
  {
    OFFSET 8.77824 4.35084 1.2192
    CHANNELS 3 Zrotation Xrotation Yrotation
    JOINT lThigh
    {
      OFFSET 0 -1.70687 -2.19456
      CHANNELS 3 Zrotation Xrotation Yrotation
      JOINT lShin
      {
        OFFSET 0 -36.8199 0.73152
        CHANNELS 3 Zrotation Xrotation Yrotation
        JOINT lFoot
        {
          OFFSET -0.73152 -45.1104 -5.12064
          CHANNELS 3 Zrotation Xrotation Yrotation
          End Site
          {
            OFFSET 1.1221 -3.69964 12.103
          }
        }
      }
    }
  }
}
MOTION
Frames:	9
Frame Time:	0.03333
0.0 0.0 0.0 0.0 0.0 0.0 0.0 0.0 0.0 0.0 0.0 0.0 0.0 0.0 0.0 0.0 0.0 0.0 0.0 0.0 0.0 0.0 0.0 0.0 0.0 0.0 0.0 0.0 0.0 0.0 0.0 0.0 0.0 0.0 0.0 0.0 0.0 0.0 0.0 0.0 0.0 0.0 0.0 0.0 0.0 0.0 0.0 0.0 0.0 0.0 0.0 0.0 0.0 0.0 0.0 0.0 0.0 0.0 0.0 0.0 0.0 0.0 0.0 0.0 0.0 0.0 0.0 0.0 0.0 0.0 0.0 0.0 0.0 0.0 0.0 0.0 0.0 0.0 0.0 0.0 0.0 0.0 0.0 0.0 0.0 0.0 0.0 0.0 0.0 0.0 0.0 0.0 0.0 0.0 0.0 0.0 0.0 0.0 0.0 0.0 0.0 0.0 0.0 0.0 0.0 0.0 0.0 0.0 0.0 0.0 0.0 0.0 0.0 0.0 0.0 0.0 0.0 0.0 0.0 0.0 0.0 0.0 0.0 0.0 0.0 0.0 0.0 0.0 0.0 0.0 0.0 0.0
5.2505999999999995 56.6824 -125.10900000000001 6.209596 24.63947 8.154219 -13.786471 9.915704 123.383103 -8.707203 -3.127223 -124.795478 -7.865933 34.999307 -143.24611 31.086189 45.015915 103.487388 0.000385 -0.0 -0.000506 0.000582 -0.0 -0.000976 2.274645 -68.328964 -15.573423 -137.795961 -25.515008 -147.778193 -167.581311 -27.807181 -90.569327 -5.857608 14.398535 -0.248978 -105.063488 35.894849 61.381751 -34.513784 -9.428661 35.238709 -147.705832 -10.467161 119.759133 -128.388349 38.864552 103.434757 -155.353514 8.564182 140.233832 -40.783759 57.655777 35.05556 -0.482897 -11.826433 -3.782823 -9.971773 66.813199 23.721474 174.836046 86.305699 -133.181275 -145.403994 2.795039 -140.176418 13.927258 42.719437 -15.763442 0.351624 18.395916 -78.886255 -110.800367 67.503215 -117.494493 167.092919 20.885923 -138.241598 -176.63187 -20.580928 -88.655923 34.480804 -27.75998 2.314521 -9.744351 -17.183186 4.416493 -166.783093 -49.131002 -97.351297 159.859417 -4.172381 -142.850885 157.761045 10.759906 -140.593759 135.471135 -47.929059 158.500277 150.601535 -17.37531 178.4555 -39.583633 85.557466 0.528723 176.407916 76.806291 141.248158 -0.01045 -0.000895 -0.005606 -61.942981 -59.213798 -114.528798 -82.455582 33.933472 8.68629 -35.56835 -66.176386 63.311711 179.999651 75.751154 0.000108 -147.264699 72.326339 17.520567 51.057017 29.803989 61.061373 179.609875 -20.179587 85.496791
5.484 56.6775 -124.74099999999999 7.254344 24.818726 9.416325 -11.548071 8.451291 -161.702347 -2.993613 6.085889 159.128716 -12.186568 20.528709 -45.791896 36.966013 -16.690273 24.379887 0.002339 0.0 0.001068 -0.003543 -0.0 0.002295 -2.015604 10.593525 2.55799 46.053692 9.732768 10.003429 97.385423 18.695377 94.675166 -158.695525 53.00318 133.239439 1.817961 -1.803337 -0.252334 65.854193 -80.214461 -1.056358 25.745891 -44.760689 -5.218849 -92.567229 47.328015 76.598093 30.679545 -68.235443 6.195384 -171.692505 -29.544812 144.039214 -0.054301 -3.286902 -1.035909 -144.249525 -79.572402 -167.099506 17.186563 60.219823 12.761848 53.328356 84.108545 -16.550634 3.102693 15.312081 -3.861997 110.34133 -16.429651 -134.466051 -5.948942 -1.420597 129.086525 175.198188 -0.631384 -142.511964 0.794442 0.78298 -0.126364 153.765272 -64.591359 -118.761058 144.393927 -4.62935 -118.207969 3.216801 23.485311 3.655387 21.750752 40.775879 -16.781879 142.041678 40.212085 -129.728222 0.074237 6.762554 -2.131533 -10.176643 -55.013739 7.376863 160.295682 66.894267 151.114109 50.750057 -51.303483 50.181277 179.992658 75.749836 0.004862 152.583573 -0.376272 -90.249662 -80.783307 12.89851 150.317021 -122.943664 58.591398 49.559758 179.933144 75.750466 0.053502 -150.182802 73.060327 19.361344 34.5157 32.783221 -106.640678 32.827824 -27.626981 92.023864
5.6417 56.745599999999996 -124.18 8.0601 24.418024 10.51178 -14.476349 11.751218 44.902929 -1.193639 -11.514884 -48.466558 -13.606406 24.293304 -70.298269 44.262834 -1.475527 45.298048 -0.003557 -0.0 0.001503 0.001926 0.0 0.001195 -159.117102 -42.206786 169.211278 -27.261366 -17.273091 -13.887986 23.222741 -32.919712 -108.793708 175.3868 -6.022643 144.449109 169.314964 -26.849547 86.708915 -146.114691 13.367986 81.789594 39.821274 -60.088947 0.835151 -0.251826 24.017938 2.832075 -144.746647 30.386304 132.244282 -21.204404 45.372299 17.460931 -0.006394 -0.759415 -0.237767 -153.360414 -67.722967 -177.214807 -137.92875 -7.402385 -135.173829 -38.43187 -47.473236 -39.54943 22.125811 52.51552 -24.315867 120.303427 3.52313 -98.60939 176.2161 9.762113 86.240336 9.041885 1.579848 2.361683 -1.243252 -1.231979 0.178946 57.710101 29.38949 -51.976559 153.964582 -22.016877 -121.871983 8.19099 32.64081 -0.601041 57.521586 59.151325 -50.19247 92.664903 63.58085 -84.393402 145.123576 1.120955 179.478358 152.940677 -22.119701 175.89601 168.777287 80.817367 147.587959 24.326446 -39.2272 24.535113 -0.000541 0.000663 -0.002316 -68.040101 -57.473552 8.896414 87.774596 13.699106 159.308271 11.762209 1.350888 94.366718 -179.986782 75.749841 -0.009464 -151.208801 71.990101 -173.671387 -25.005385 -39.506277 96.22773 28.421464 -12.054994 77.910937
5.7532 56.9257 -123.37 8.579862 23.545685 11.09443 -13.807795 11.601885 26.765395 1.431819 -11.536131 -31.191096 7.545899 20.984043 76.784102 -40.212348 0.046066 -101.914628 -0.002108 -0.0 0.003451 0.003419 0.0 0.003098 -1.903389 10.076626 2.421795 -116.008511 43.662996 164.546246 -70.344499 19.143569 -80.78535 88.212416 -71.706542 72.267266 -48.688644 33.385851 22.195516 -49.508485 8.84851 51.114599 -108.037903 34.371804 91.41003 0.64184 9.983072 -4.668922 -29.688895 47.732942 23.952138 177.586891 -53.381758 139.781936 -144.834002 11.54486 177.203223 -9.840019 84.526508 21.692347 -53.636019 -50.251123 -52.320631 14.176624 34.998199 6.804119 159.159412 -43.747603 -169.520494 36.052103 -8.681059 59.91513 -3.773856 -9.422485 128.518818 176.945338 -4.357526 -142.948777 -168.767026 -27.287983 -86.531165 168.579623 -5.160029 -99.098196 0.954161 1.531975 -0.547585 -23.983251 -17.948405 1.14485 8.58877 21.226893 -5.777389 169.186526 -23.255073 -144.319753 -0.005363 1.458777 -0.459616 132.930619 67.495175 -146.742015 -17.078118 59.837428 -12.728342 -1.230818 -0.755093 0.805113 -179.994352 75.749699 -0.003281 152.855746 -0.975055 -90.584161 -90.949007 8.573809 -89.81362 38.751753 2.884587 164.426336 -179.924288 75.747284 -0.059782 -150.492219 74.001279 -144.340403 -39.077138 -24.34014 46.601792 179.943777 51.098824 -89.838391
5.8456 57.061099999999996 -122.508 8.954486 22.426248 11.389619 -10.028425 9.996159 -63.613844 9.238198 -1.350524 57.721317 1.924407 33.447255 168.108171 -9.004187 51.262631 172.613189 0.000419 0.0 0.000437 0.000532 -0.0 -8.3e-05 -144.127027 37.251058 148.623589 -74.273721 42.920124 65.427643 11.905435 -46.620054 -111.887561 171.085368 -17.696367 143.556498 -174.622094 -12.280879 89.845946 -162.489403 -1.454954 86.766829 -37.745497 36.430802 28.900423 -2.67004 13.888571 1.149355 -166.985288 -26.783894 145.219089 0.046661 8.657951 1.739291 -145.123198 1.452976 -179.585826 6.060449 -30.447022 -14.041123 -147.370863 19.337298 -143.734529 -155.244508 35.246576 -145.803138 126.594844 57.273549 -130.35789 -116.424325 -11.322624 -145.6481 -165.826132 -11.146047 -43.853804 171.238599 13.065213 -140.550196 -9.684634 -9.675068 0.678794 12.829228 12.531114 -5.053198 111.090366 32.631245 -94.009626 5.635633 19.89059 1.873636 -3.289998 -10.018613 1.614463 162.463547 -2.189929 -143.058068 144.972806 8.727656 -178.113834 -11.366472 38.730622 4.522545 153.409115 42.116254 148.424516 160.895035 51.186394 147.037787 -0.003652 0.000755 -0.005136 -66.214499 -58.801746 26.071088 90.218648 -2.646052 128.272906 69.937522 -41.141919 167.336828 -0.003652 0.000755 -0.005136 4.746399 1.860951 113.885709 37.793541 -14.812597 -117.329192 82.693985 29.233985 9.023777
5.8953 57.128299999999996 -121.54499999999999 8.797036 21.083575 11.261938 -8.665887 7.739712 -108.589207 6.142291 4.729645 101.187144 7.993744 25.823064 112.063033 -39.412916 24.359328 -124.379116 0.000374 0.0 0.001535 0.000209 0.0 0.002063 -157.003402 -14.652598 164.072378 -31.791283 9.480457 8.181115 -41.46132 -20.594831 -138.880627 141.221876 -60.677805 122.045526 -3.142079 3.072756 0.564538 -83.379618 21.580411 76.9816 -132.477167 13.243049 110.871682 -139.373909 28.484075 108.954079 -171.533072 -40.194693 145.211346 5.899071 -8.340045 -0.574347 -145.122613 1.806286 -179.69474 11.155675 15.270867 -7.206012 -7.986674 -17.217371 -7.531015 -83.800488 -54.02602 -83.681737 142.16684 40.845087 -146.531122 59.794995 -16.259324 -11.565356 8.097247 41.649656 122.040206 178.936982 -11.961253 -143.490277 161.855982 0.447125 -89.194597 -127.78692 -52.07732 -86.339073 -10.777662 -19.105062 4.733592 127.833216 26.941299 -100.356547 165.070271 -20.675639 -144.847992 76.995174 64.013045 -69.201362 0.044597 -2.823517 0.889352 -11.180107 -10.311327 1.318797 139.96441 -2.593816 137.078762 -5.293876 7.124582 -0.083304 0.001513 -0.002368 0.00018 -64.222645 -59.941334 36.537152 86.626608 -7.614352 170.559043 38.696278 -84.363456 137.014819 -179.998406 75.748768 -0.001338 -149.007802 78.221988 -98.899179 -50.590514 15.25122 -114.488099 -61.399869 -19.078318 -146.539999
5.8536 57.308800000000005 -120.57580000000002 8.376855 19.367153 11.083611 -6.988335 8.505095 -81.110273 8.998926 0.85247 72.809122 7.548882 21.324684 89.701224 -40.033659 8.633627 -104.305365 -0.001792 -0.0 0.001983 -0.001792 -0.0 0.001983 4.273703 -49.930257 -9.760089 -103.708241 -51.345412 -128.386157 -2.988661 -23.389162 -120.197102 166.86196 -28.628951 141.662262 -172.840846 -10.518206 89.926967 13.034191 -60.846853 13.958528 -157.209116 -28.004599 122.475518 153.909382 -64.911326 93.556794 -167.429727 -28.179639 145.276574 -139.224614 43.269329 127.021443 0.004574 1.824106 0.572915 -156.721833 -36.634908 176.19423 -26.534339 -38.841278 -25.577251 34.46345 78.523931 2.00649 156.663593 -11.855421 -163.532107 59.360126 -13.377415 42.135912 170.240596 -19.166198 82.187249 7.137724 -6.075181 3.230586 179.414947 -16.917412 -89.353768 -150.65249 -47.204752 -103.706952 173.457843 -52.532283 -119.951877 -25.242513 -21.251054 9.881529 163.089416 -14.300085 -144.243633 2.004552 14.032604 -2.887465 145.100685 -1.434183 178.677941 151.403636 -29.684687 174.354094 9.092865 -19.11698 8.598347 -17.560807 50.960142 -9.231165 -0.002082 -0.000949 -0.002756 -59.927582 -61.093605 17.11646 90.053108 12.88283 124.165032 -14.749643 51.71888 129.170661 0.004508 0.001702 0.001144 4.189688 3.248637 167.536431 5.715408 -46.439628 -106.265867 -117.089167 3.556144 2.328429
5.7164 57.6132 -119.57990000000001 7.879458 17.27593 10.858554 -5.900499 9.269356 -51.720406 9.701494 -4.341633 42.835531 -11.84285 16.948917 -42.985105 32.876856 -17.465564 33.629099 -0.001855 0.0 -0.00026 -0.001855 0.0 -0.00026 -151.155933 17.991902 156.413207 -99.434312 53.782901 77.20215 110.288214 16.704583 -30.422913 -111.069506 72.824934 90.398231 -0.560992 0.55213 0.088075 -67.076159 27.796876 61.369496 -152.903229 -20.042287 121.597754 -142.866921 19.982654 114.032455 -159.76407 -3.882318 142.802327 151.464053 -72.247492 118.938301 -0.002046 -0.053947 -0.017278 10.700208 -5.61626 -0.755509 -23.415545 -36.367624 -22.515011 -166.714 71.815145 -147.589088 15.292525 -83.187034 36.12619 71.813939 -35.45064 128.037742 -4.943161 3.871881 131.833152 175.22984 -1.125087 -142.557811 -152.28822 -38.344256 -79.463243 117.404328 27.949739 -62.088475 157.849171 -29.164979 -122.550726 -43.925488 -52.181365 1.681454 179.943353 -57.915102 -142.140856 149.431647 29.311598 -135.152986 0.204721 -7.338634 2.324656 154.882359 -2.072078 -172.146312 148.70502 24.066666 144.857877 154.433268 32.418473 145.473562 -0.001124 0.000328 -0.000475 -52.052275 -64.831516 -142.855163 -90.259166 2.104816 -82.495779 120.090233 -11.528061 -162.791239 179.954116 75.749837 0.037758 -161.190941 77.767595 144.19123 16.005709 -53.093796 -62.880915 -89.157428 38.653214 -7.356925
